<?xml version="1.0" standalone="yes"?>
<svg xmlns="http://www.w3.org/2000/svg" width="391" height="450">
<path style="fill:#08080b; stroke:none;" d="M0 0L0 450L391 450L391 0L0 0z"/>
<path style="fill:#3240c4; stroke:none;" d="M291 37L292 38L291 37M288 38L289 39L288 38M284 39L285 40L284 39M286 41L287 42L286 41M180 46L181 47L180 46M258 47L258 51L255 51L255 52L259 51L258 47z"/>
<path style="fill:#c8cacf; stroke:none;" d="M258 48L258 49C269.124 48.1751 280.046 50.0425 277 64L266.036 70.7037L255 65C251.482 59.8433 255.342 56.2398 257 51L256 51C251.722 57.8787 251.042 63.0822 251.5 71C251.624 73.144 254.14 78.7031 256 76L278 78L285 57L281 57C274.111 48.6797 269.486 44.6049 258 48z"/>
<path style="fill:#3240c4; stroke:none;" d="M269 47L270 48L269 47M274 47L275 48L274 47M260 48L261 49L260 48M264.667 48.3333L265.333 48.6667L264.667 48.3333M271.667 48.3333L272.333 48.6667L271.667 48.3333z"/>
<path style="fill:#c8cacf; stroke:none;" d="M257.333 49.6667L257.667 50.3333L257.333 49.6667z"/>
<path style="fill:#08080b; stroke:none;" d="M254 65L258 63C263.395 77.1791 268.944 66.7242 277 64L279 60C273.693 43.2287 250.166 47.0874 254 65z"/>
<path style="fill:#3240c4; stroke:none;" d="M275 49L276 50L275 49M274 50L275 51L274 50M276 50L277 51L276 50M160.667 52.3333L161.333 52.6667L160.667 52.3333z"/>
<path style="fill:#eb6d64; stroke:none;" d="M155 61L148 57C142.104 60.6119 142.612 72.8075 151 72L157 89L159 86L160 86L160 89L177 84L176 77L177 77L178 84L179 84C178.904 82.3366 178.414 73.4449 176 77L175 77C174.804 71.5052 185.814 58.4571 174 60C171.634 48.4066 157.641 50.9157 155 61z"/>
<path style="fill:#3240c4; stroke:none;" d="M168.667 52.3333L169.333 52.6667L168.667 52.3333M204 52L205 53L204 52M275 52L276 53L275 52M277 52L278 53L277 52M279 52L280 53L279 52M284 52L285 53L284 52M158 53L159 54L158 53M171 53L172 54L171 53M254 53L255 54L254 53M256 53L257 54L256 53M157 54L158 55L157 54M172 54L173 55L172 54M195 54L196 55L195 54M253.333 54.6667L253.667 55.3333L253.333 54.6667M276 54L277 55L276 54M278 54L279 55L278 54M156 55L157 56L156 55M202 55L203 56L202 55M255 55L256 56L255 55M277 55L278 56L277 55M279 55L280 56L279 55M283 55L284 56L283 55M173 56L174 57L173 56M245 56L246 57L245 56M252 56L253 57L252 56M254 56L255 57L254 56M158 58L158 59L163 59L158 58M167 57L168 58L167 57z"/>
<path style="fill:#08080b; stroke:none;" d="M168 57L168 58L172 58L168 57M281 57C285.292 73.4152 261.781 84.2948 254 68L253 68L252 71L254 70L253 73L256 75L254 74L254 75C261.236 77.6111 270.555 78.1604 278 76L278 75L276 76L276 75L279 74L278 71L282 68L280 69L280 68L283 67L282 64L284 65L284 57L281 57z"/>
<path style="fill:#dec76b; stroke:none;" d="M149 58L150 59L149 58z"/>
<path style="fill:#3240c4; stroke:none;" d="M150 58L151 59L150 58M155 58L156 59L155 58z"/>
<path style="fill:#08080b; stroke:none;" d="M157 58L158 59L157 58z"/>
<path style="fill:#3240c4; stroke:none;" d="M172 58L173 59L172 58M174 58L174 60L176 60L174 58M236 58L237 59L236 58M251 58L252 59L251 58M253 58L254 59L253 58M277 58L278 59L277 58z"/>
<path style="fill:#eb6d64; stroke:none;" d="M351 89L353 89L354 87C353.46 79.0391 355.182 69.7305 348.62 63.6096C334.702 50.6265 312.371 60.9217 312.08 79.0756C311.883 91.3784 318.572 99.6375 331.09 99.9491C339.025 100.147 350.545 99.2451 351 89z"/>
<path style="fill:#08080b; stroke:none;" d="M146 59L145 68L148 70L146 69L149 72L148 70L152 71L152 70C148.029 66.9634 147.167 64.6837 149 60L146 59z"/>
<path style="fill:#3240c4; stroke:none;" d="M178 59L179 60L178 59M199 59L200 60L199 59M154 60L155 61L154 60M250.333 60.6667L250.667 61.3333L250.333 60.6667M252 60L252 63L253 63L252 60M273.667 60.3333L274.333 60.6667L273.667 60.3333M277 60L278 61L277 60z"/>
<path style="fill:#08080b; stroke:none;" d="M279 60L276 67L274 66L272 70L274 69L274 70C268.793 72.7786 261.41 73.5591 258 68L260 69L258 65L255 65C260.186 77.3277 281.424 74.8329 279 60M324 60L325 61L324 60M322 63L323 61C318.938 63.5968 315.998 65.9541 316 71L314 70L314 89L316 88L316 89C316.423 93.5681 319.165 95.7344 323 98L322 96L323 96C330.386 100.138 336.461 99.0714 344 96L343 98L349 93L345 95L351 91L350 69L352 70L343 61L344 63C335.739 59.6346 330.261 59.6346 322 63M341 60L342 61L341 60z"/>
<path style="fill:#eb6d64; stroke:none;" d="M146 61L147 62L146 61z"/>
<path style="fill:#08080b; stroke:none;" d="M170 61L171 62L170 61z"/>
<path style="fill:#3240c4; stroke:none;" d="M180.333 61.6667L180.667 62.3333L180.333 61.6667M197 61L198 62L197 61M222 61L223 62L222 61z"/>
<path style="fill:#eb6d64; stroke:none;" d="M316 69L318 68L318 69C310.323 81.4755 315.593 95.3035 330 97.6713C335.231 98.531 339.871 96.1783 345 96L350 91C350.223 82.7978 353.176 74.9746 348.617 67.1119C342.693 56.896 321.43 60.4785 316 69z"/>
<path style="fill:#08080b; stroke:none;" d="M159 62L160 63L159 62z"/>
<path style="fill:#3240c4; stroke:none;" d="M170 62L171 63L170 62M226 62L227 63L226 62M241 62L242 63L241 62z"/>
<path style="fill:#c8cacf; stroke:none;" d="M202 63L203 64L202 63z"/>
<path style="fill:#3240c4; stroke:none;" d="M204 63L205 64L204 63M223 63L224 64L223 63M230 63L231 64L230 63M251.333 63.6667L251.667 64.3333L251.333 63.6667M257 63L258 64L257 63M180.333 64.6667L180.667 65.3333L180.333 64.6667M236 64L237 65L236 64z"/>
<path style="fill:#08080b; stroke:none;" d="M275 64L276 65L275 64M321 64L318 68L321 64M328 64.6528C308.498 70.7682 318.723 100.193 337.999 94.3511C357.659 88.3932 347.323 58.5935 328 64.6528M344 64L349 69L344 64z"/>
<path style="fill:#c8cacf; stroke:none;" d="M202 65L203 66L202 65z"/>
<path style="fill:#3240c4; stroke:none;" d="M215 65L216 66L215 65M233 65L234 66L233 65z"/>
<path style="fill:#eb6d64; stroke:none;" d="M328 65.6528C309.787 71.3713 319.781 99.0677 338 93.3472C356.419 87.5639 346.226 59.9302 328 65.6528z"/>
<path style="fill:#c8cacf; stroke:none;" d="M205 66L206 67L205 66z"/>
<path style="fill:#3240c4; stroke:none;" d="M220 66L221 67L220 66z"/>
<path style="fill:#c8cacf; stroke:none;" d="M257.333 66.6667L257.667 67.3333L257.333 66.6667z"/>
<path style="fill:#08080b; stroke:none;" d="M330 66L321 72L322 75L320 74L320 85L322 84L321 87L326 92L329 93L337 93L343 88L341 91L346 85L344 86L344 85C346.132 80.5434 345.657 77.5547 344 73L346 74L341 68L344 73L330 66z"/>
<path style="fill:#dec76b; stroke:none;" d="M161 67L161 68L164 68L161 67z"/>
<path style="fill:#c8cacf; stroke:none;" d="M160 68C163.63 72.3395 167.397 72.1558 170 67L160 68z"/>
<path style="fill:#3240c4; stroke:none;" d="M215 67L216 68L215 67M246 67L247 68L246 67z"/>
<path style="fill:#c8cacf; stroke:none;" d="M251 67L252 68L251 67M274.333 67.6667L274.667 68.3333L274.333 67.6667z"/>
<path style="fill:#08080b; stroke:none;" d="M326 67L327 68L326 67M339 67L340 68L339 67z"/>
<path style="fill:#3240c4; stroke:none;" d="M177 68L178 69L177 68z"/>
<path style="fill:#08080b; stroke:none;" d="M324 68L322 71L324 68z"/>
<path style="fill:#3240c4; stroke:none;" d="M175.333 69.6667L175.667 70.3333L175.333 69.6667z"/>
<path style="fill:#c8cacf; stroke:none;" d="M279.333 69.6667L279.667 70.3333L279.333 69.6667z"/>
<path style="fill:#dec76b; stroke:none;" d="M161 70L162 71L161 70M168 70L169 71L168 70z"/>
<path style="fill:#08080b; stroke:none;" d="M260 70L261 71L260 70M153 71L154 75L152 74L157 78L158 86L159 86C158.741 80.0803 156.945 75.455 153 71z"/>
<path style="fill:#3240c4; stroke:none;" d="M174.333 72.6667L174.667 73.3333L174.333 72.6667M176 73L177 74L176 73z"/>
<path style="fill:#c8cacf; stroke:none;" d="M176 74L177 75L176 74z"/>
<path style="fill:#eb6d64; stroke:none;" d="M154 75L156 78L154 75z"/>
<path style="fill:#08080b; stroke:none;" d="M176 77L176 82L177 82L176 77z"/>
<path style="fill:#eb6d64; stroke:none;" d="M156 78L157 79L156 78z"/>
<path style="fill:#3240c4; stroke:none;" d="M156 79L157 80L156 79M158 79L159 80L158 79z"/>
<path style="fill:#c8cacf; stroke:none;" d="M51 84L44 89C37.6147 87.9619 31.3695 93.7913 27.0147 98.0401C14.1278 110.613 9.01339 131.796 11.4352 149.421C12.2157 155.101 11.98 164.561 17 168C15.9418 176.977 24.763 187.092 29.7292 194C41.7193 210.679 57.2061 224.69 73.0394 237.662C79.5243 242.975 86.2374 249.714 94 253C81.9482 270.879 71.7431 290.044 61.5255 309C57.9799 315.578 51.0087 324.35 52 332C47.0738 333.023 45.1064 339.744 43.1389 344C38.1064 354.885 32.9661 362.981 32 375C39.0625 377.673 58.162 385.483 60 393L88 403L94 400C98.3343 392.574 107.475 378.63 106 370C110.42 367.453 112.936 361.989 112 357C115.101 355.172 115.454 353.519 115 350C118.446 349.264 118.615 347.273 118 344L121 343L120 340L121 338C125.031 335.671 126.559 331.53 126 327L128 322L132 318L131 318L129 318L128 322L127 322L126 320L126 319L131 314L132 317L133 317L147 291L167 303L174 313C173.366 315.579 173.181 317 176 317C175.242 326.486 187.577 339.064 197 339C199.788 343.07 205.483 343.638 210.17 343.905C221.825 344.569 236.69 345.311 248 343L250 344L255 346C257.466 349.283 261.131 349.806 265 349L277.241 353.241L319 352L321 349C326.126 349.987 329.788 347.134 334 344.409C343.993 337.943 360.546 321.118 359 308C363.086 305.2 362.55 300.568 363.534 296.116C365.817 285.785 367.549 262.297 357 256C357.469 248.151 350.942 241.598 346.13 236C333.871 221.736 315.552 203.383 298 196L298 199L296 196L240 209.424L218 216C196.914 210.687 158.652 243.174 151.21 209C149.83 202.663 148.31 196.351 147 190C136.134 193.47 125.138 196.86 114 199.361C94.6719 203.701 60.3766 195.429 72.25 168C80.8382 148.16 104.535 131.976 122 120.333C128.266 116.156 134.541 112.067 141 108.194C142.827 107.099 148.665 104.809 146 103L146 102L148 99L127 89.2222L118 86L95.8302 82.0949L51 84z"/>
<path style="fill:#dec76b; stroke:none;" d="M176.667 82.3333L177.333 82.6667L176.667 82.3333M179 82L179 86L159 89L159 96L158 96L158 89L157 89C156.551 94.8964 153.153 96.8381 148 99L150 103C141.121 106.251 132.839 112.441 125 117.667C107.524 129.316 87.1464 143.082 75.5478 161C63.0704 180.276 75.9057 200.966 98 201C106.304 201.013 113.853 199.097 122 198C118.392 185.379 117.711 178.698 122 166L116 167L141.394 137.105L152 129C159.453 133.794 180.467 125.299 189 123.424C193.278 122.484 197.485 122.578 199 118C216.363 123.132 239.505 111.259 257 109L255 107L255 106L259 105L249 102L246 101L244 100L239 98C236.084 94.1178 229.584 93.3402 225 94L213.407 90.1805L181 88L179 82z"/>
<path style="fill:#08080b; stroke:none;" d="M39 92L40 90L39 90L39 93C31.424 92.7198 25.838 100.202 22 106L24 105L24 106L21 107L19 111L21 110L21 111L18 112C19.2094 115.628 16.3993 122.6 14 122L12.3002 144L18 173L20 172L19 175L21 174L20 177L24 181L22 180L22 181L25 181L32 193L30 192L35 197L33 196L40 203L37 201C46.9939 215.19 62.5342 229.431 77 239L75 236L82 243L81 241L82 241L91 250L90 248L91 248L96 256L93 256L93 257L95 256L95 257L91 259L91 260L93 259L93 260L90 261L91 264L88 264L88 265L90 264L90 265L86 267L86 268L88 267L88 268L85 269L86 272C82.8269 272.367 82.725 273.917 83 277L80 277L80 278L82 277L82 278L78 281L79 284L75 287L77 286L77 287L74 288L75 291L71 294L73 293L73 294L70 295L71 298L69 297L70 300L67 300L67 301L69 300L69 301L64 306L65 309L63 308L64 311L60 314L62 313L62 314L57 319L58 322L56 321L57 324L55 323L56 326L54 325L55 328L53 327L54 330L52 329C51.7713 333.574 49.6827 340.379 45 342L46 345L44 344L45 347L43 346L44 349L42 348L43 351L41 350L42 353L40 352L41 355L39 354L40 357L38 356L39 359L37 358L38 361L36 360L37 363L35 362L36 365L34 364L35 367L33 366L33 371L34 371C46.318 341.413 63.4572 312.832 79.2809 285C83.5042 277.572 87.9258 270.265 92.4244 263C94.0903 260.31 97.5333 256.506 97.0031 253.09C96.4987 249.841 92.3416 247.637 90 245.789C83.6048 240.743 77.2303 235.659 71 230.41C51.9685 214.375 33.5939 196.224 21.8889 174C0.96999 134.282 23.5652 88.5667 69 84.1698C97.9919 81.3641 119.854 92.4853 146 102L146 99L143 100L144 98L141 99L142 97L139 98L140 96L137 97L138 95L135 96L136 94L133 95L134 93C124.757 93.5581 114.269 86.9916 105 85.2608C81.5447 80.8811 60.8788 82.8911 39 92M177 83L178 84L177 83M179 83L180 84L179 83M178.333 84.6667L178.667 85.3333L178.333 84.6667M180 85C178.401 93.3974 189.458 90.9379 195 91.0038C216.485 91.2594 234.803 100.476 255 106L255 105L252 102C244.549 102.492 236.071 97.9654 229 95.6697C218.856 92.3763 207.676 90.2762 197 90.0146C190.637 89.8587 182.773 92.0506 180 85M159 86L159 89L160 89L159 86z"/>
<path style="fill:#eb6d64; stroke:none;" d="M343.333 86.6667L343.667 87.3333L343.333 86.6667z"/>
<path style="fill:#08080b; stroke:none;" d="M322 88L325 91L322 88M41 89L42 90L41 89M158 89L158 96L159 96L158 89M317 90L322 95L317 90M129 91L130 92L129 91M339 91L340 92L339 91M131 92L132 93L131 92z"/>
<path style="fill:#c8cacf; stroke:none;" d="M36 93L24 105L36 93z"/>
<path style="fill:#08080b; stroke:none;" d="M156 96L157 98L154 97L155 99L152 98L153 100L150 99L150 102L160 96L156 96M324 98L325 99L324 98M341 98L342 99L341 98M147.667 100.333L148.333 100.667L147.667 100.333M146 102L146 103L150 103L146 102z"/>
<path style="fill:#3240c4; stroke:none;" d="M258 107L264 106L264 107L254 109L254 110L257 110L257 111L250 110L250 111L252 111L252 112L245 111L245 112L247 112L247 113L240 112L240 113L243 113L243 114L236 113L236 114L238 114L238 115L231 114L231 115L233 115L233 116L226 115L226 116L229 116L229 117L222 116L222 117L224 117L224 118L217 117L217 118L220 118L220 119L213 118L213 119L215 119L215 120L198 121L199 123L198 123L194 122L194 123L196 123L196 124L189 123L189 124L192 124L192 125L185 124L185 125L187 125L187 126L180 125L180 126L183 126L183 127L176 126L176 127L178 127L178 128L171 127L171 128L173 128L173 129L166 128L166 129L168 129L168 130L162 129L162 130L164 130L164 131L157 130L157 131L159 131L159 132L152 131L152 132L155 132L155 133L148 132L148 133L150 133L150 134L145 133L144 136L142 138L139 139L139 154L140 154L140 151L141 151L140 159L141 159L141 156L142 156L147 160L147 159L145 159L145 158L155 156L153 155L153 154L163 153C162.378 157.064 164.21 157.864 168 157L166 166L172 165L168 151L177 152L176 157L177 157L177 155L178 155L177 161L178 161L178 159L179 159L178 170L173 169L173 170L175 170L175 171L172 169C167.743 170.157 163.373 171.346 167 176L162 177L162 178L167 182L165 186L164 186L163 184L158 188L156 187L155 187L155 188L157 188L157 189L152 188L152 189L154 189L154 190L149 189L149 190L151 191L148 190L147 190L150 206L151 206L151 202L152 202L152 215L153 215L153 212L154 212L153 218L156 218C156.253 223.801 160.874 225.203 166 226L165 224L166 224L176 224L176 223L173 223L173 222L190 221L190 220L186 220L186 219L199 219L199 218L196 218L196 217L204 218L204 217L200 217L200 216L213 216L213 215L210 215L210 214L218 216L227 213L227 212L223 212L223 211L230 212L230 211L228 211L228 210L235 211L235 210L233 210L233 209L240 210L240 209L237 209L237 208L244 209L244 208L242 208L242 207L249 208L249 207L246 207L246 206L254 207L254 206L251 206L251 205L258 206L258 205L256 205L256 204L263 205L263 204L261 204L261 203L268 204L268 203L265 203L265 202L272 203L272 202L270 202L270 201L277 202L277 201L274 201L274 200L281 201L281 200L279 200L279 199L286 200L286 199L284 199L284 198L290 199L290 198L288 198L288 197L296 194L300 196L299 193C303.512 189.057 299.915 180.793 300.128 175.561C300.273 172.007 302.355 168.531 303 165C298.183 164.844 292.389 162.919 294 170C289.439 165.251 292.356 156.853 283 163C285.882 157.453 284.151 154.585 278 157C281.768 153.325 285.858 145.875 277 149L279 144L282 145L282 142L285 143L288 141L288 131L289 133C295.405 116.497 273.404 90.7036 258 107z"/>
<path style="fill:#08080b; stroke:none;" d="M256 104L257 105L256 104M258 105L259 106L258 105M264 105L264 106C280.296 106 285.733 115.486 287 131C289.209 125.339 285.693 109.166 279.955 106.259C275.467 103.985 268.884 105 264 105M255 106L255 107L258 109L259 109L264 107L264 106L255 106z"/>
<path style="fill:#3240c4; stroke:none;" d="M278 106L284 112L278 106z"/>
<path style="fill:#c8cacf; stroke:none;" d="M21.3333 108.667L21.6667 109.333L21.3333 108.667z"/>
<path style="fill:#eb6d64; stroke:none;" d="M257 108L258 109L257 108M253 109L254 110L253 109M248.667 110.333L249.333 110.667L248.667 110.333z"/>
<path style="fill:#08080b; stroke:none;" d="M252 110L252 111L257 111L252 110z"/>
<path style="fill:#eb6d64; stroke:none;" d="M244 111L245 112L244 111z"/>
<path style="fill:#08080b; stroke:none;" d="M248 111L248 112L252 112L248 111z"/>
<path style="fill:#eb6d64; stroke:none;" d="M239 112L240 113L239 112z"/>
<path style="fill:#08080b; stroke:none;" d="M243 112L243 113L247 113L243 112z"/>
<path style="fill:#eb6d64; stroke:none;" d="M235 113L236 114L235 113z"/>
<path style="fill:#08080b; stroke:none;" d="M238 113L238 114L243 114L238 113M17 114L18 115L17 114z"/>
<path style="fill:#eb6d64; stroke:none;" d="M230 114L231 115L230 114z"/>
<path style="fill:#08080b; stroke:none;" d="M234 114L234 115L238 115L234 114z"/>
<path style="fill:#eb6d64; stroke:none;" d="M225 115L226 116L225 115z"/>
<path style="fill:#08080b; stroke:none;" d="M229 115L229 116L233 116L229 115M16 116L17 117L16 116z"/>
<path style="fill:#eb6d64; stroke:none;" d="M221 116L222 117L221 116z"/>
<path style="fill:#08080b; stroke:none;" d="M224 116L224 117L229 117L224 116z"/>
<path style="fill:#eb6d64; stroke:none;" d="M216 117L217 118L216 117z"/>
<path style="fill:#08080b; stroke:none;" d="M220 117L220 118L224 118L220 117z"/>
<path style="fill:#3240c4; stroke:none;" d="M199 118L200 119L199 118z"/>
<path style="fill:#eb6d64; stroke:none;" d="M211.667 118.333L212.333 118.667L211.667 118.333z"/>
<path style="fill:#08080b; stroke:none;" d="M215 118L215 119L220 119L215 118M199 122L200 122L207 120C204.026 118.286 199.82 118.172 199 122M211 119L211 120L215 120L211 119M262 120L262 121L270 120L262 120M271 119L271 120L274 121L271 119M208.667 120.333L209.333 120.667L208.667 120.333z"/>
<path style="fill:#3240c4; stroke:none;" d="M266 120L266 121L269 121L266 120z"/>
<path style="fill:#eb6d64; stroke:none;" d="M268.945 120.587C263.153 120.591 251.283 122.655 246.318 125.653C242.796 127.779 243.772 133.865 248.059 134.218C253.472 134.664 267.243 131.994 271.678 128.836C275.315 126.246 273.224 120.584 268.945 120.587z"/>
<path style="fill:#3240c4; stroke:none;" d="M272 120L273 121L272 120z"/>
<path style="fill:#08080b; stroke:none;" d="M257 121L257 122L261 122L257 121z"/>
<path style="fill:#eb6d64; stroke:none;" d="M193 122L194 123L193 122z"/>
<path style="fill:#08080b; stroke:none;" d="M197.667 122.333L198.333 122.667L197.667 122.333M253 122L253 123L256 123L253 122M274 122L274 125L275 125L274 122z"/>
<path style="fill:#eb6d64; stroke:none;" d="M188 123L189 124L188 123z"/>
<path style="fill:#08080b; stroke:none;" d="M192 123L192 124L196 124L192 123M248 123L248 124L252 124L248 123z"/>
<path style="fill:#eb6d64; stroke:none;" d="M184 124L185 125L184 124z"/>
<path style="fill:#08080b; stroke:none;" d="M187 124L187 125L192 125L187 124M243 125L243 126L247 125L243 125z"/>
<path style="fill:#eb6d64; stroke:none;" d="M179 125L180 126L179 125z"/>
<path style="fill:#08080b; stroke:none;" d="M183 125L183 126L187 126L183 125z"/>
<path style="fill:#3240c4; stroke:none;" d="M244.667 125.333L245.333 125.667L244.667 125.333z"/>
<path style="fill:#eb6d64; stroke:none;" d="M174.667 126.333L175.333 126.667L174.667 126.333z"/>
<path style="fill:#08080b; stroke:none;" d="M178 126L178 127L183 127L178 126M242 126L242 130L243 130L242 126M275.333 126.667L275.667 127.333L275.333 126.667z"/>
<path style="fill:#eb6d64; stroke:none;" d="M170 127L171 128L170 127z"/>
<path style="fill:#08080b; stroke:none;" d="M173 127L173 128L178 128L173 127z"/>
<path style="fill:#eb6d64; stroke:none;" d="M165 128L166 129L165 128z"/>
<path style="fill:#08080b; stroke:none;" d="M169 128L169 129L173 129L169 128z"/>
<path style="fill:#3240c4; stroke:none;" d="M273 128L271 129L271 130L273 128z"/>
<path style="fill:#08080b; stroke:none;" d="M274 128L275 129L274 128z"/>
<path style="fill:#c8cacf; stroke:none;" d="M152 129L151 131L153 131L152 129z"/>
<path style="fill:#eb6d64; stroke:none;" d="M160.667 129.333L161.333 129.667L160.667 129.333z"/>
<path style="fill:#08080b; stroke:none;" d="M164 129L164 130L168 130L164 129M273 129L274 130L273 129z"/>
<path style="fill:#eb6d64; stroke:none;" d="M156 130L157 131L156 130z"/>
<path style="fill:#08080b; stroke:none;" d="M160 130L160 131L164 131L160 130z"/>
<path style="fill:#3240c4; stroke:none;" d="M266 130L266 131L269 131L266 130z"/>
<path style="fill:#08080b; stroke:none;" d="M269 130L269 131L273 131L269 130z"/>
<path style="fill:#eb6d64; stroke:none;" d="M151 131L152 132L151 131z"/>
<path style="fill:#08080b; stroke:none;" d="M155 131L155 132L159 132L155 131M243 131C244.178 134.882 246.048 135.699 250 136L250 135L243 131M265 131L265 132L269 132L265 131M288 131L287 134C305.967 131.618 300.327 153.737 301 166L302 166L304 159L302 160L302 159C305.66 153.849 302.796 137.098 298 133.167C294.945 130.663 290.968 133.226 288 131z"/>
<path style="fill:#eb6d64; stroke:none;" d="M290 131L290 132L297 132L290 131M298.667 131.333L299.333 131.667L298.667 131.333M147 132L148 133L147 132z"/>
<path style="fill:#08080b; stroke:none;" d="M151 132L151 133L155 133L151 132M260 132L260 133L264 133L260 132z"/>
<path style="fill:#eb6d64; stroke:none;" d="M297 132L298 133L297 132M300 132L301 133L300 132z"/>
<path style="fill:#08080b; stroke:none;" d="M147 133L147 134L150 134L147 133z"/>
<path style="fill:#3240c4; stroke:none;" d="M244 133L245 134L244 133M252 133L252 134L255 134L252 133z"/>
<path style="fill:#08080b; stroke:none;" d="M255 133L255 134L259 134L255 133z"/>
<path style="fill:#eb6d64; stroke:none;" d="M277 149C285.142 147.688 280.87 153.094 278 157C283.768 155.625 284.683 157.69 283 163C293.079 158.049 288.255 166.233 294 170C293.551 164.815 296.426 164.297 301 165C300.758 155.698 302.59 149.371 299.525 140.001C298.146 135.782 295.886 130.964 290.318 133.743C287.311 135.244 286.904 140.36 283.942 142.656C281.305 144.7 279.046 146.35 277 149M298 133L299 134L298 133M143 134L144 135L143 134z"/>
<path style="fill:#08080b; stroke:none;" d="M145 134L146 135L145 134z"/>
<path style="fill:#3240c4; stroke:none;" d="M245 134L246 135L245 134z"/>
<path style="fill:#08080b; stroke:none;" d="M251 134L251 135L255 135L251 134z"/>
<path style="fill:#eb6d64; stroke:none;" d="M299 134L303 150L304 150L302 134L299 134z"/>
<path style="fill:#08080b; stroke:none;" d="M143 135L144 136L143 135M286 135L286 138L287 138L286 135M142 136L143 137L142 136z"/>
<path style="fill:#eb6d64; stroke:none;" d="M140 137L141 138L140 137z"/>
<path style="fill:#08080b; stroke:none;" d="M141 137L142 138L141 137M140 139L141 140L140 139M287 139L288 140L287 139M286 140L287 141L286 140M301 140L303 142L301 140z"/>
<path style="fill:#eb6d64; stroke:none;" d="M138 141L139 142L138 141z"/>
<path style="fill:#08080b; stroke:none;" d="M139 141L139 151L140 151L139 141M284 141L285 142L284 141z"/>
<path style="fill:#3240c4; stroke:none;" d="M138 142L138 149L139 149L138 142z"/>
<path style="fill:#08080b; stroke:none;" d="M282.667 142.333L283.333 142.667L282.667 142.333M281 143L282 144L281 143M279.667 144.333L280.333 144.667L279.667 144.333z"/>
<path style="fill:#c8cacf; stroke:none;" d="M137 145L116 167C126.86 165.598 131.869 162.78 140 156L137 145z"/>
<path style="fill:#08080b; stroke:none;" d="M278 145L276 148L278 145z"/>
<path style="fill:#eb6d64; stroke:none;" d="M138 149L139 150L138 149z"/>
<path style="fill:#08080b; stroke:none;" d="M275 149L274 155L275 155L275 149M171 150L171 151L176 152L171 150z"/>
<path style="fill:#eb6d64; stroke:none;" d="M302 150L303 151L302 150M304 150L305 151L304 150z"/>
<path style="fill:#08080b; stroke:none;" d="M140 151L140 156L141 156L140 151M162.667 151.333L163.333 151.667L162.667 151.333M166 151L167 152L166 151M168 151L168 152L171 152L168 151z"/>
<path style="fill:#eb6d64; stroke:none;" d="M303 151L304 157L305 157L303 151z"/>
<path style="fill:#08080b; stroke:none;" d="M160 152L161 153L160 152z"/>
<path style="fill:#eb6d64; stroke:none;" d="M163 152L164 153L163 152M169 152L168 157L169 157L169 152z"/>
<path style="fill:#dec76b; stroke:none;" d="M169 158L176 156C173.658 150.177 169.409 152.752 169 158z"/>
<path style="fill:#08080b; stroke:none;" d="M176.333 152.667L176.667 153.333L176.333 152.667M157.667 153.333L158.333 153.667L157.667 153.333z"/>
<path style="fill:#eb6d64; stroke:none;" d="M141 161L140 156C128.921 164.217 117.887 167.185 118.005 183C118.034 186.977 118.438 194.805 123.214 196.212C126.848 197.283 132.496 194.398 136 193.424C146.578 190.483 156.84 187.167 167 183L167 182L162 178L162 177L167 176L166 171L164 168L169 166L169 165L166 166L167 160L159 163L159 162L166 159L166 158L163 153L141 161M175 153L176 154L175 153z"/>
<path style="fill:#08080b; stroke:none;" d="M269 153L269 154L273 154L269 153z"/>
<path style="fill:#eb6d64; stroke:none;" d="M139 154L140 155L139 154z"/>
<path style="fill:#08080b; stroke:none;" d="M153 154L153 155L157 155L153 154M265 154L265 155L268 161L269 161L265 154M152 155L151 157L152 155M177 155L177 159L178 159L177 155M262 155L263 156L262 155M141 156L144 160L144 159L141 156z"/>
<path style="fill:#dec76b; stroke:none;" d="M153.667 156.333L154.333 156.667L153.667 156.333z"/>
<path style="fill:#eb6d64; stroke:none;" d="M174 156L174 157L174 158L177 158L177 157L174 156z"/>
<path style="fill:#08080b; stroke:none;" d="M255 156L255 157L258 157L255 156M275 156L275 160L276 160L275 156z"/>
<path style="fill:#dec76b; stroke:none;" d="M137 157L138 158L137 157z"/>
<path style="fill:#08080b; stroke:none;" d="M148.667 157.333L149.333 157.667L148.667 157.333z"/>
<path style="fill:#dec76b; stroke:none;" d="M167 157L162 162C164.79 161.145 167.779 160.309 167 157z"/>
<path style="fill:#eb6d64; stroke:none;" d="M170 157L169 159L171 159L170 157z"/>
<path style="fill:#3240c4; stroke:none;" d="M171 157L171 158L174 158L171 157z"/>
<path style="fill:#dec76b; stroke:none;" d="M169 159L169 160L172 164L177 163L176 157L169 159z"/>
<path style="fill:#08080b; stroke:none;" d="M260 157L261 162L262 162L260 157z"/>
<path style="fill:#eb6d64; stroke:none;" d="M277 157L278 158L277 157M303 157L302 160L305 160L303 157z"/>
<path style="fill:#dec76b; stroke:none;" d="M136 158L137 159L136 158z"/>
<path style="fill:#08080b; stroke:none;" d="M145 158L145 159L148 159L145 158M246.667 158.333L247.333 158.667L246.667 158.333M253 158L254 159L253 158M178 159L178 164L179 164L178 159M243.667 159.333L244.333 159.667L243.667 159.333z"/>
<path style="fill:#3240c4; stroke:none;" d="M141.667 160.333L142.333 160.667L141.667 160.333z"/>
<path style="fill:#08080b; stroke:none;" d="M237 160L237 161L240 161L237 160M249 160L249 163L250 163L249 160M254 160L254 163L255 163L254 160z"/>
<path style="fill:#eb6d64; stroke:none;" d="M301 160L302 161L301 160M303 160L304 161L303 160z"/>
<path style="fill:#dec76b; stroke:none;" d="M134 161L135 162L134 161M160 161L159 163L161 163L160 161z"/>
<path style="fill:#3240c4; stroke:none;" d="M161 161L162 162L161 161z"/>
<path style="fill:#eb6d64; stroke:none;" d="M171 161L171 164L172 164L171 161M177 161L178 162L177 161z"/>
<path style="fill:#08080b; stroke:none;" d="M232.667 161.333L233.333 161.667L232.667 161.333M242 161L242 165L243 165L242 161M276 161L274 163L274 164L276 161z"/>
<path style="fill:#eb6d64; stroke:none;" d="M302 161L302 165L303 165L302 161z"/>
<path style="fill:#3240c4; stroke:none;" d="M177 162L178 163L177 162z"/>
<path style="fill:#08080b; stroke:none;" d="M229 162L228 167L229 167L231 163L229 162M235 162L235 166L236 166L235 162M269 162L272 165L272 164L269 162M279 162L280 163L279 162M281 162L281 165L282 165L281 162z"/>
<path style="fill:#dec76b; stroke:none;" d="M133 163L134 164L133 163M157.667 163.333L158.333 163.667L157.667 163.333z"/>
<path style="fill:#eb6d64; stroke:none;" d="M173 163L172 165L174 165L173 163z"/>
<path style="fill:#3240c4; stroke:none;" d="M174.667 163.333L175.333 163.667L174.667 163.333z"/>
<path style="fill:#eb6d64; stroke:none;" d="M176.667 163.333L177.333 163.667L176.667 163.333z"/>
<path style="fill:#08080b; stroke:none;" d="M223 163L223 164L226 164L223 163M262 163L262 166L263 166L262 163z"/>
<path style="fill:#dec76b; stroke:none;" d="M128.667 164.333L129.333 164.667L128.667 164.333M164 170L171 170L170 166L171 166C173.682 170.091 177.241 168.372 178 164C172.831 164.423 166.997 165.43 164 170z"/>
<path style="fill:#08080b; stroke:none;" d="M179 164L178 169L179 169L179 164z"/>
<path style="fill:#dec76b; stroke:none;" d="M124 165L125 166L124 165z"/>
<path style="fill:#08080b; stroke:none;" d="M213 165L213 166L216 169L217 169L213 165M221 165L221 168L222 168L221 165M250 165L250 168L251 168L250 165M255 165L259 168L259 167L255 165M264 165L264 166L268 166L264 165z"/>
<path style="fill:#eb6d64; stroke:none;" d="M303 165L302 168L303 165M114 166L115 167L114 166M170 166L171 167L170 166z"/>
<path style="fill:#08080b; stroke:none;" d="M211 166L212 167L211 166M243 166L243 169L244 169L243 166M260 166L261 167L260 166M300 166L295 171L298 195L299 195L297 171L302 168L300 169L300 166M302 166L303 167L302 166z"/>
<path style="fill:#3240c4; stroke:none;" d="M170 167L171 168L170 167z"/>
<path style="fill:#08080b; stroke:none;" d="M204 167L204 168L207 168L204 167M209 167L211 176L212 176L209 167M236 167L236 171L237 171L236 167M288.667 167.333L289.333 167.667L288.667 167.333z"/>
<path style="fill:#eb6d64; stroke:none;" d="M170.667 168.333L171.333 168.667L170.667 168.333M176 168L177 169L176 168z"/>
<path style="fill:#08080b; stroke:none;" d="M200 168L200 169L202 171L203 171L200 168M229 168L229 172L230 172L229 168z"/>
<path style="fill:#dec76b; stroke:none;" d="M161 169L157 171L157 172L161 169z"/>
<path style="fill:#eb6d64; stroke:none;" d="M172 169L173 170L172 169z"/>
<path style="fill:#08080b; stroke:none;" d="M175 169L175 170L178 170L175 169M195 172L196 172L198 170L195 172M222 169L222 173L223 173L222 169M246 169L246 170L249 170L246 169M290 169L294 172L294 171L290 169z"/>
<path style="fill:#3240c4; stroke:none;" d="M299 169L298 171L299 169z"/>
<path style="fill:#08080b; stroke:none;" d="M17 170L18 171L17 170M171 170L171 171L175 171L171 170M190 170L190 171L193 171L190 170M217 170L217 173L218 173L217 170M241.667 170.333L242.333 170.667L241.667 170.333M238.667 171.333L239.333 171.667L238.667 171.333M181.667 172.333L182.333 172.667L181.667 172.333M188.333 172.667L188.667 173.333L188.333 172.667M203 172L207 179L207 178L203 172M232 172L232 173L235 173L232 172M178.667 173.333L179.333 173.667L178.667 173.333M196 173L196 177L197 177L196 173M227.667 173.333L228.333 173.667L227.667 173.333M172 174L172 175L175 175L172 174M218 174L219 175L218 174M224.667 174.333L225.333 174.667L224.667 174.333M168 175L169 176L168 175M184 175L184 178L185 178L184 175M189 175L189 178L190 178L189 175M177 176L176 184L176 185C179.485 182.714 178.815 179.42 177 176M214 176L214 177L217 177L214 176M170 177L171 185L172 185L170 177M209 177L210 178L209 177M21 178L22 179L21 178M197.333 178.667L197.667 179.333L197.333 178.667M248 178L239 180L239 181L249 179L248 178M185 179L185 182L186 182L185 179M190 179L194 182L194 181L190 179M199 179L199 180L203 180L199 179M195 180L196 181L195 180z"/>
<path style="fill:#3240c4; stroke:none;" d="M243 180L243 181L246 181L243 180z"/>
<path style="fill:#c8cacf; stroke:none;" d="M242 181L242 182L249 181L249 185C250.667 179.918 245.554 180.591 242 181z"/>
<path style="fill:#08080b; stroke:none;" d="M250 180L251 188L252 188L250 180M216 185L216 186L238 182L216 185z"/>
<path style="fill:#eb6d64; stroke:none;" d="M241.333 181.667L241.667 182.333L241.333 181.667M246 181L247 182L246 181z"/>
<path style="fill:#3240c4; stroke:none;" d="M247 181C247 184.085 244.442 182.45 242 182L242 183L244 183L244 184L237 183L237 184L239 184L239 185L229 183L229 184L235 185L235 186L228 185L228 186L230 186L230 187L220 185L220 186L226 187L226 188L219 187L219 188L221 188L221 189L214 188L214 189L216 189L216 190L206 188L206 189L212 190L212 191L205 190L205 191L207 191L207 192L199 192L199 193L202 192C200.419 195.847 200.91 197.747 205 199L205 198L201 197L201 196L206 197L206 196L204 196L204 195L211 196L211 195L209 195L209 194L219 196L219 195L213 194L213 193L220 194L220 193L218 193L218 192L225 193L225 192L223 192L223 191L233 193L233 192L227 191L227 190L234 191L234 190L232 190L232 189L239 190L239 189L236 189L236 188L243 189L243 188L241 188L241 187L248 188L248 187L246 186C248.28 184.36 248.5 183.362 247 181z"/>
<path style="fill:#eb6d64; stroke:none;" d="M248 181L249 182L248 181z"/>
<path style="fill:#3240c4; stroke:none;" d="M234.667 182.333L235.333 182.667L234.667 182.333z"/>
<path style="fill:#eb6d64; stroke:none;" d="M236.333 182.667L236.667 183.333L236.333 182.667z"/>
<path style="fill:#c8cacf; stroke:none;" d="M237 182L237 183L241 183L237 182z"/>
<path style="fill:#08080b; stroke:none;" d="M244 182L244 183L248 183L244 182z"/>
<path style="fill:#c8cacf; stroke:none;" d="M25 183L29 190L30 190L25 183z"/>
<path style="fill:#08080b; stroke:none;" d="M181 183L181 184L184 184L181 183z"/>
<path style="fill:#c8cacf; stroke:none;" d="M232 183L232 184L236 184L232 183z"/>
<path style="fill:#08080b; stroke:none;" d="M240 183L240 184L244 184L240 183z"/>
<path style="fill:#3240c4; stroke:none;" d="M250.333 183.667L250.667 184.333L250.333 183.667z"/>
<path style="fill:#08080b; stroke:none;" d="M164.333 184.667L164.667 185.333L164.333 184.667z"/>
<path style="fill:#3240c4; stroke:none;" d="M225.667 184.333L226.333 184.667L225.667 184.333z"/>
<path style="fill:#eb6d64; stroke:none;" d="M227.333 184.667L227.667 185.333L227.333 184.667z"/>
<path style="fill:#c8cacf; stroke:none;" d="M228 184L228 185L232 185L228 184z"/>
<path style="fill:#08080b; stroke:none;" d="M235 184L235 185L239 185L235 184M248 184L246 186L246 187C248.251 186.527 249.118 186.14 248 184M173.667 185.333L174.333 185.667L173.667 185.333z"/>
<path style="fill:#c8cacf; stroke:none;" d="M223 185L223 186L227 186L223 185z"/>
<path style="fill:#08080b; stroke:none;" d="M230 185L230 186L235 186L230 185z"/>
<path style="fill:#eb6d64; stroke:none;" d="M249.667 185.333L250.333 185.667L249.667 185.333z"/>
<path style="fill:#08080b; stroke:none;" d="M167 186L167 187L170 187L167 186M206 187L206 188L215 187L206 187z"/>
<path style="fill:#eb6d64; stroke:none;" d="M218.333 186.667L218.667 187.333L218.333 186.667z"/>
<path style="fill:#c8cacf; stroke:none;" d="M219 186L219 187L223 187L219 186z"/>
<path style="fill:#08080b; stroke:none;" d="M226 186L226 187L230 187L226 186z"/>
<path style="fill:#3240c4; stroke:none;" d="M249 186L250 187L249 186z"/>
<path style="fill:#c8cacf; stroke:none;" d="M250 186L249 188L251 188L250 186z"/>
<path style="fill:#08080b; stroke:none;" d="M157 187L158 188L157 187M162.667 187.333L163.333 187.667L162.667 187.333z"/>
<path style="fill:#3240c4; stroke:none;" d="M211.667 187.333L212.333 187.667L211.667 187.333z"/>
<path style="fill:#eb6d64; stroke:none;" d="M213.333 187.667L213.667 188.333L213.333 187.667z"/>
<path style="fill:#c8cacf; stroke:none;" d="M214 187L214 188L218 188L214 187z"/>
<path style="fill:#08080b; stroke:none;" d="M221 187L221 188L226 188L221 187M241 187L241 188L245 188L241 187z"/>
<path style="fill:#eb6d64; stroke:none;" d="M248.333 187.667L248.667 188.333L248.333 187.667z"/>
<path style="fill:#08080b; stroke:none;" d="M154 188L154 189L157 189L154 188M159.667 188.333L160.333 188.667L159.667 188.333M202 188L202 189L206 189L202 188z"/>
<path style="fill:#c8cacf; stroke:none;" d="M209 188L209 189L213 189L209 188z"/>
<path style="fill:#08080b; stroke:none;" d="M217 188L217 189L221 189L217 188M236 188L236 189L241 189L236 188z"/>
<path style="fill:#eb6d64; stroke:none;" d="M243.333 188.667L243.667 189.333L243.333 188.667z"/>
<path style="fill:#c8cacf; stroke:none;" d="M244 188L244 189L248 189L244 188z"/>
<path style="fill:#08080b; stroke:none;" d="M151 189L151 190L154 190L151 189M205 200L205 199L199 199C198.538 195.238 197.542 192.268 201 190C194.831 188.614 197.382 199.75 205 200z"/>
<path style="fill:#eb6d64; stroke:none;" d="M204.333 189.667L204.667 190.333L204.333 189.667z"/>
<path style="fill:#c8cacf; stroke:none;" d="M205 189L205 190L209 190L205 189z"/>
<path style="fill:#08080b; stroke:none;" d="M212 189L212 190L216 190L212 189M232 189L232 190L236 190L232 189z"/>
<path style="fill:#c8cacf; stroke:none;" d="M235 190L235 191L243 190L235 190z"/>
<path style="fill:#08080b; stroke:none;" d="M247 189L247 190L251 190L247 189M148 192L151 191L148 192M192 190L161 197L161 198L193 191L192 190z"/>
<path style="fill:#3240c4; stroke:none;" d="M198 190L199 191L198 190z"/>
<path style="fill:#eb6d64; stroke:none;" d="M199 190L200 191L199 190z"/>
<path style="fill:#c8cacf; stroke:none;" d="M200 190L200 191L204 191L200 190z"/>
<path style="fill:#08080b; stroke:none;" d="M207 190L207 191L212 191L207 190M227 190L227 191L232 191L227 190z"/>
<path style="fill:#eb6d64; stroke:none;" d="M234.333 190.667L234.667 191.333L234.333 190.667M239 190L240 191L239 190z"/>
<path style="fill:#3240c4; stroke:none;" d="M240.667 190.333L241.333 190.667L240.667 190.333z"/>
<path style="fill:#08080b; stroke:none;" d="M242 190L242 191L246 191L242 190M194 191L195 198L196 198L194 191z"/>
<path style="fill:#c8cacf; stroke:none;" d="M198 191L198 193L200 191L198 191z"/>
<path style="fill:#08080b; stroke:none;" d="M202 191L202 192L207 192L202 191M223 191L223 192L227 192L223 191z"/>
<path style="fill:#c8cacf; stroke:none;" d="M230 191L230 192L234 192L230 191z"/>
<path style="fill:#3240c4; stroke:none;" d="M235.667 191.333L236.333 191.667L235.667 191.333z"/>
<path style="fill:#08080b; stroke:none;" d="M237 191L237 192L242 192L237 191z"/>
<path style="fill:#3240c4; stroke:none;" d="M188 192L188 193L193 194L193 193L188 192z"/>
<path style="fill:#c8cacf; stroke:none;" d="M191 192L191 193L193 196L194 196L194 192L191 192z"/>
<path style="fill:#08080b; stroke:none;" d="M200 192L200 195L201 195L202 192L200 192M218 192L218 193L222 193L218 192z"/>
<path style="fill:#eb6d64; stroke:none;" d="M225.333 192.667L225.667 193.333L225.333 192.667z"/>
<path style="fill:#c8cacf; stroke:none;" d="M226 192L226 193L230 193L226 192z"/>
<path style="fill:#08080b; stroke:none;" d="M233 192L233 193L237 193L233 192z"/>
<path style="fill:#c8cacf; stroke:none;" d="M32 193L33 194L32 193z"/>
<path style="fill:#dec76b; stroke:none;" d="M135 193L136 194L135 193z"/>
<path style="fill:#08080b; stroke:none;" d="M149 193L149 197L150 197L149 193z"/>
<path style="fill:#3240c4; stroke:none;" d="M183 193L183 194L189 195L189 196L178 194L178 195L184 196L184 197L174 195L174 196L179 197L179 198L169 196L169 197L174 198L174 199L165 197L165 198L170 199L170 200L163 199L162 205L163 205L164 200L165 200L165 204L177 205L177 204L172 203L172 202L182 204L182 203L176 202L176 201L186 203L186 202L181 201L181 200L191 202L191 201L185 200L185 199C188.569 198.803 190.757 198.538 192 195L183 193z"/>
<path style="fill:#c8cacf; stroke:none;" d="M186 193L186 194L190 194L186 193z"/>
<path style="fill:#3240c4; stroke:none;" d="M194 193L193 198L194 198L194 193z"/>
<path style="fill:#eb6d64; stroke:none;" d="M198.667 193.333L199.333 193.667L198.667 193.333z"/>
<path style="fill:#08080b; stroke:none;" d="M213 193L213 194L218 194L213 193z"/>
<path style="fill:#eb6d64; stroke:none;" d="M220.333 193.667L220.667 194.333L220.333 193.667z"/>
<path style="fill:#c8cacf; stroke:none;" d="M221 193L221 194L225 194L221 193z"/>
<path style="fill:#3240c4; stroke:none;" d="M226.667 193.333L227.333 193.667L226.667 193.333z"/>
<path style="fill:#08080b; stroke:none;" d="M228 193L228 194L233 194L228 193z"/>
<path style="fill:#dec76b; stroke:none;" d="M132 194L133 195L132 194z"/>
<path style="fill:#c8cacf; stroke:none;" d="M182 194L182 195L185 195L182 194z"/>
<path style="fill:#08080b; stroke:none;" d="M189 194L189 195L192 195L190 198L190 199L194 199L193 194L189 194z"/>
<path style="fill:#3240c4; stroke:none;" d="M198.333 194.667L198.667 195.333L198.333 194.667z"/>
<path style="fill:#c8cacf; stroke:none;" d="M199 194L202 199L199 194z"/>
<path style="fill:#08080b; stroke:none;" d="M209 194L209 195L213 195L209 194z"/>
<path style="fill:#c8cacf; stroke:none;" d="M216 194L216 195L220 195L216 194z"/>
<path style="fill:#08080b; stroke:none;" d="M224 194L224 195L228 195L224 194M296 194L295 195L297 196L297 197L295 198L298 199L296 194z"/>
<path style="fill:#dec76b; stroke:none;" d="M128 195L129 196L128 195z"/>
<path style="fill:#c8cacf; stroke:none;" d="M177 195L177 196L181 196L177 195z"/>
<path style="fill:#08080b; stroke:none;" d="M184 195L184 196L189 196L184 195M204 195L204 196L208 196L204 195z"/>
<path style="fill:#eb6d64; stroke:none;" d="M211.333 195.667L211.667 196.333L211.333 195.667z"/>
<path style="fill:#c8cacf; stroke:none;" d="M212 195L212 196L216 196L212 195z"/>
<path style="fill:#08080b; stroke:none;" d="M219 195L219 196L223 196L219 195M291 197L294 196L291 197z"/>
<path style="fill:#3240c4; stroke:none;" d="M347 195C339.163 201.445 332.937 205.636 332 216C341.886 215.06 346.458 208.887 354 203L352 197L354 196L353 195L352 197L351 197L347 197L347 195z"/>
<path style="fill:#dec76b; stroke:none;" d="M125 196L126 197L125 196z"/>
<path style="fill:#c8cacf; stroke:none;" d="M172 196L172 197L176 197L172 196z"/>
<path style="fill:#08080b; stroke:none;" d="M179 196L179 197L184 197L179 196M201 196L201 197L204 197L201 196z"/>
<path style="fill:#eb6d64; stroke:none;" d="M206.333 196.667L206.667 197.333L206.333 196.667z"/>
<path style="fill:#c8cacf; stroke:none;" d="M207 196L207 197L211 197L207 196z"/>
<path style="fill:#3240c4; stroke:none;" d="M212.667 196.333L213.333 196.667L212.667 196.333z"/>
<path style="fill:#08080b; stroke:none;" d="M214 196L214 197L219 197L214 196M294 196L295 197L294 196z"/>
<path style="fill:#eb6d64; stroke:none;" d="M296 196L297 197L296 196z"/>
<path style="fill:#c8cacf; stroke:none;" d="M35 197L37 199L35 197M168 197L168 198L172 198L168 197z"/>
<path style="fill:#08080b; stroke:none;" d="M175 197L175 198L179 198L175 197z"/>
<path style="fill:#c8cacf; stroke:none;" d="M194 197L193 200L194 197M202 197L202 198L206 198L202 197z"/>
<path style="fill:#08080b; stroke:none;" d="M210 197L210 198L214 198L210 197M288 197L288 198L291 198L288 197M298 197L299 198L298 197M346 197C340.97 201.814 334.208 205.695 333 213C340.8 215.768 353.865 205.262 351 197L345 200L346 197M150 198L150 202L151 202L150 198z"/>
<path style="fill:#c8cacf; stroke:none;" d="M163 198L163 199L167 199L163 198z"/>
<path style="fill:#08080b; stroke:none;" d="M170 198L170 199L174 199L170 198M196.333 198.667L196.667 199.333L196.333 198.667z"/>
<path style="fill:#3240c4; stroke:none;" d="M199 198L200 199L199 198z"/>
<path style="fill:#08080b; stroke:none;" d="M205 198L205 199L209 199L205 198M284 198L284 199L288 199L284 198M300 198L301 200L298 199C304.093 206.378 313.557 211.761 321 217.804C337.137 230.906 354.136 247.522 360.279 268C371.243 304.552 339.888 349.255 302 351.91C288.674 352.844 275.677 350.718 263 346.656C256.534 344.584 249.697 340.433 243 339.479C230.184 337.653 218.436 344.062 205 339.961C193.552 336.466 183.19 327.726 177.81 317C175.588 312.57 175.187 306.404 172.146 302.529C166.942 295.898 153.581 289.586 146 286C141.225 293.239 130.965 306.174 132 315L133 315L132 312L134 313L133 310L137 307L135 308L135 307L138 306L137 303L141 300L139 301L139 300L143 297L142 294L146 291L144 292L144 291L148 290L148 289L146 287L150 292L151 292L150 290L151 290L152 293L158 294L158 297L159 297L158 295L159 295L160 298L163 297L163 300L164 300L163 298L164 298L166 302L167 302L166 300L167 300L168 303L171 302L170 304C173.693 304 176.274 316.533 176 320L178 319L177 322L180 324L178 323L188 334L186 331L196 337L195 339C199.451 338.258 205.914 341.729 211 343C220.962 345.491 232.344 341.443 241 340C244.484 339.419 245.36 341.561 245 343L285 352.83L324 349L323 347L326 348L325 346L328 347L327 345L330 346L332 343L331 345C339.241 340.259 346.244 333.237 351 325L349 326L349 325L353 323L353 322L351 323L351 322L355 319L354 316L356 317L355 314L357 315L356 312L358 313L363.714 286L362 264C358.609 264 356.755 256.103 357 253L355 254L355 253L348 242L350 243C342.948 232.339 332.54 222.207 322 215L324 218L317 211L318 213L317 213L308 204L309 206L308 206L304 201L305 203L304 203L300 198z"/>
<path style="fill:#3240c4; stroke:none;" d="M334 213C341.282 213.379 351.24 205.577 351 198C343.626 200.652 335.403 204.514 334 213z"/>
<path style="fill:#08080b; stroke:none;" d="M160 199L161 200L160 199z"/>
<path style="fill:#c8cacf; stroke:none;" d="M162 199L162 202L163 202L162 199z"/>
<path style="fill:#08080b; stroke:none;" d="M166 199L166 200L170 200L166 199M185 199L185 200L190 200L185 199M279 199L279 200L283 200L279 199z"/>
<path style="fill:#eb6d64; stroke:none;" d="M286 199L287 200L286 199z"/>
<path style="fill:#08080b; stroke:none;" d="M164 200C164.064 202.993 163.946 204.346 167 205L167 204L164 200M181 200L181 201L185 201L181 200z"/>
<path style="fill:#c8cacf; stroke:none;" d="M189 200L189 201L192 201L189 200z"/>
<path style="fill:#08080b; stroke:none;" d="M274 200L274 201L279 201L274 200z"/>
<path style="fill:#eb6d64; stroke:none;" d="M281 200L282 201L281 200z"/>
<path style="fill:#c8cacf; stroke:none;" d="M301 200L302 201L301 200z"/>
<path style="fill:#08080b; stroke:none;" d="M161 201L161 205L162 205L161 201M176 201L176 202L181 202L176 201z"/>
<path style="fill:#c8cacf; stroke:none;" d="M184 201L184 202L188 202L184 201z"/>
<path style="fill:#08080b; stroke:none;" d="M191 201L191 202L195 202L191 201M270 201L270 202L274 202L270 201z"/>
<path style="fill:#eb6d64; stroke:none;" d="M277 201L278 202L277 201z"/>
<path style="fill:#08080b; stroke:none;" d="M344 201L335 210L344 201M337 213L351 202C345.774 201.885 339.892 208.979 337 213M151 202L151 207L152 207L151 202M172 202L172 203L176 203L172 202z"/>
<path style="fill:#c8cacf; stroke:none;" d="M179 202L179 203L183 203L179 202z"/>
<path style="fill:#08080b; stroke:none;" d="M186 202L186 203L191 203L186 202M265 202L265 203L269 203L265 202z"/>
<path style="fill:#eb6d64; stroke:none;" d="M272 202L273 203L272 202z"/>
<path style="fill:#c8cacf; stroke:none;" d="M40 203C48.4942 215.07 62.1949 228.6 75 236C66.6867 224.705 51.4725 211.081 40 203M163 203L164 207L165 207L163 203z"/>
<path style="fill:#08080b; stroke:none;" d="M167 203L167 204L172 204L167 203z"/>
<path style="fill:#c8cacf; stroke:none;" d="M175 203L175 204L179 204L175 203z"/>
<path style="fill:#08080b; stroke:none;" d="M182 203L182 204L186 204L182 203M261 203L261 204L265 204L261 203z"/>
<path style="fill:#c8cacf; stroke:none;" d="M305 203L306 204L305 203M170 204L170 205L174 205L170 204z"/>
<path style="fill:#08080b; stroke:none;" d="M177 204L177 205L182 205L177 204M256 204L256 205L260 205L256 204z"/>
<path style="fill:#eb6d64; stroke:none;" d="M263 204L264 205L263 204z"/>
<path style="fill:#08080b; stroke:none;" d="M162 205C164.451 208.767 167.99 207.504 172 207L172 206L162 205z"/>
<path style="fill:#3240c4; stroke:none;" d="M164 205L164 206L168 207L168 206L164 205z"/>
<path style="fill:#c8cacf; stroke:none;" d="M166 205L166 206L169 206L166 205z"/>
<path style="fill:#08080b; stroke:none;" d="M173 205L173 206L177 206L173 205M251 205L251 206L256 206L251 205z"/>
<path style="fill:#eb6d64; stroke:none;" d="M258 205L259 206L258 205z"/>
<path style="fill:#3240c4; stroke:none;" d="M163 206L164 207L163 206z"/>
<path style="fill:#08080b; stroke:none;" d="M246 206L246 207L251 207L246 206z"/>
<path style="fill:#c8cacf; stroke:none;" d="M309 206L315 211L309 206z"/>
<path style="fill:#3240c4; stroke:none;" d="M147 207L148 208L147 207z"/>
<path style="fill:#08080b; stroke:none;" d="M152 207L152 211L153 211L152 207M242 207L242 208L246 208L242 207z"/>
<path style="fill:#eb6d64; stroke:none;" d="M249 207L250 208L249 207z"/>
<path style="fill:#08080b; stroke:none;" d="M237 208L237 209L242 209L237 208z"/>
<path style="fill:#eb6d64; stroke:none;" d="M244 208L245 209L244 208z"/>
<path style="fill:#08080b; stroke:none;" d="M233 209L233 210L237 210L233 209M228 210L228 211L233 211L228 210z"/>
<path style="fill:#eb6d64; stroke:none;" d="M235 210L236 211L235 210z"/>
<path style="fill:#08080b; stroke:none;" d="M223 211L223 212L228 212L223 211z"/>
<path style="fill:#eb6d64; stroke:none;" d="M230 211L231 212L230 211z"/>
<path style="fill:#08080b; stroke:none;" d="M153 212L153 216L154 216L153 212M219 212L219 213L223 213L219 212M214 213L214 214L218 214L214 213z"/>
<path style="fill:#c8cacf; stroke:none;" d="M318 213L320 215L318 213z"/>
<path style="fill:#08080b; stroke:none;" d="M210 214L210 215L214 215L210 214z"/>
<path style="fill:#3240c4; stroke:none;" d="M225 214L226 215L225 214z"/>
<path style="fill:#08080b; stroke:none;" d="M205 215L205 216L209 216L205 215z"/>
<path style="fill:#3240c4; stroke:none;" d="M223 215L224 216L223 215M363 215L351 229L349 232L351 230L352 230L355 232L355 233L349 233L349 234C360.387 236.945 370.091 225.281 371 215L363 215z"/>
<path style="fill:#08080b; stroke:none;" d="M154.333 216.667L154.667 217.333L154.333 216.667M200 216L200 217L205 217L200 216M357 224L359 221L351 229L352 230L369 217L355 234L369 221L367 224C369.645 221.438 369.951 219.529 369 216L357 224M196 217L196 218L200 218L196 217z"/>
<path style="fill:#3240c4; stroke:none;" d="M364 217L361 221L364 217z"/>
<path style="fill:#08080b; stroke:none;" d="M155.333 218.667L155.667 219.333L155.333 218.667M191 218L191 219L195 219L191 218z"/>
<path style="fill:#3240c4; stroke:none;" d="M225 218L226 219L225 218z"/>
<path style="fill:#c8cacf; stroke:none;" d="M324 218L348 242C342.23 232.776 333.224 223.77 324 218z"/>
<path style="fill:#08080b; stroke:none;" d="M186 219L186 220L191 220L186 219z"/>
<path style="fill:#3240c4; stroke:none;" d="M220 219L221 220L220 219z"/>
<path style="fill:#08080b; stroke:none;" d="M156 220L158 222L156 220M182 220L182 221L186 221L182 220M177 221L177 222L181 222L177 221z"/>
<path style="fill:#3240c4; stroke:none;" d="M224 221L225 222L224 221z"/>
<path style="fill:#08080b; stroke:none;" d="M159 222L160 223L159 222M173 222L173 223L177 223L173 222M161 223L161 224L164 224L161 223M168 223L168 224L172 224L168 223M165.667 224.333L166.333 224.667L165.667 224.333z"/>
<path style="fill:#3240c4; stroke:none;" d="M356 224L352 229L356 224M364 224L356 232L364 224M223 225L224 226L223 225M222 227L223 228L222 227M170.667 229.333L171.333 229.667L170.667 229.333M165 230L166 231L165 230M169 231L170 232L169 231M364 248L364 256C375.234 255.061 384.973 247.617 386 236C376.058 236.8 371.75 242.1 364 248z"/>
<path style="fill:#08080b; stroke:none;" d="M367 249L369 246L365 255L372 252L370 255L379 246L377 249L385 243L383 241L385 238C375.721 235.591 373.204 244.513 367 249z"/>
<path style="fill:#3240c4; stroke:none;" d="M167 238L168 239L167 238M366 253L380 244L379 246L384 238C375.547 238.708 369.979 246.029 366 253z"/>
<path style="fill:#c8cacf; stroke:none;" d="M79 239L81 241L79 239z"/>
<path style="fill:#08080b; stroke:none;" d="M379 239L372 246L379 239z"/>
<path style="fill:#3240c4; stroke:none;" d="M162 240L163 241L162 240z"/>
<path style="fill:#08080b; stroke:none;" d="M381 242L380 244L381 242z"/>
<path style="fill:#c8cacf; stroke:none;" d="M84 243L90 248L84 243z"/>
<path style="fill:#3240c4; stroke:none;" d="M161.333 244.667L161.667 245.333L161.333 244.667z"/>
<path style="fill:#c8cacf; stroke:none;" d="M350 245L354 252L355 252L350 245z"/>
<path style="fill:#3240c4; stroke:none;" d="M366 249L367 250L366 249z"/>
<path style="fill:#08080b; stroke:none;" d="M373 249L372 251L373 249z"/>
<path style="fill:#c8cacf; stroke:none;" d="M93 250L97 254L93 250z"/>
<path style="fill:#eb6d64; stroke:none;" d="M308 253L309 254L308 253z"/>
<path style="fill:#3240c4; stroke:none;" d="M309.667 253.333L310.333 253.667L309.667 253.333M306 254L307 255L306 254z"/>
<path style="fill:#08080b; stroke:none;" d="M294 260C304.223 275.452 320.585 283.189 328 301L329 301C325.09 284.689 310.004 277.783 301 265C306.113 262.849 311.194 260.044 311 254L294 260z"/>
<path style="fill:#eb6d64; stroke:none;" d="M303 255L304 256L303 255z"/>
<path style="fill:#3240c4; stroke:none;" d="M304 255L305 256L304 255M311.333 255.667L311.667 256.333L311.333 255.667z"/>
<path style="fill:#c8cacf; stroke:none;" d="M358 255L359 256L358 255z"/>
<path style="fill:#3240c4; stroke:none;" d="M301 256L302 257L301 256z"/>
<path style="fill:#eb6d64; stroke:none;" d="M298 257L299 258L298 257z"/>
<path style="fill:#3240c4; stroke:none;" d="M299 257L300 258L299 257z"/>
<path style="fill:#eb6d64; stroke:none;" d="M312 257L313 258L312 257M296 258L297 259L296 258z"/>
<path style="fill:#3240c4; stroke:none;" d="M297 258L298 259L297 258M311 258L312 259L311 258z"/>
<path style="fill:#08080b; stroke:none;" d="M359 258L360 259L359 258z"/>
<path style="fill:#eb6d64; stroke:none;" d="M294 259L295 260L294 259z"/>
<path style="fill:#3240c4; stroke:none;" d="M295 259L296 260L295 259z"/>
<path style="fill:#eb6d64; stroke:none;" d="M310 259L311 260L310 259z"/>
<path style="fill:#3240c4; stroke:none;" d="M274 270L289 298C294.482 296.507 298.191 291.407 303.715 290.143C312.52 288.127 320.549 298.134 328 301C324.008 287.141 313.365 278.791 303.015 269.576C300.296 267.155 296.934 261.481 292.985 261.302C287.411 261.051 279.2 267.835 274 270M308 260L309 261L308 260M307 261L308 262L307 261M305 262L306 263L305 262M304 263L305 264L304 263z"/>
<path style="fill:#eb6d64; stroke:none;" d="M303 264L304 265L303 264z"/>
<path style="fill:#3240c4; stroke:none;" d="M301.333 265.667L301.667 266.333L301.333 265.667M302 267L303 268L302 267M303 268L304 269L303 268M304 269L305 270L304 269M305 270L306 271L305 270M306 271L307 272L306 271z"/>
<path style="fill:#c8cacf; stroke:none;" d="M84 272L83 275L84 272z"/>
<path style="fill:#3240c4; stroke:none;" d="M307 272L308 273L307 272M308 273L309 274L308 273M309 274L310 275L309 274M310 275L311 276L310 275M311 276L312 277L311 276z"/>
<path style="fill:#eb6d64; stroke:none;" d="M314 278L315 279L314 278z"/>
<path style="fill:#08080b; stroke:none;" d="M79 279L80 280L79 279z"/>
<path style="fill:#eb6d64; stroke:none;" d="M315 279L316 280L315 279z"/>
<path style="fill:#3240c4; stroke:none;" d="M316 280L317 281L316 280M317 281L318 282L317 281M250 282L249 284L250 282M318 282L319 283L318 282M319 283L320 284L319 283z"/>
<path style="fill:#c8cacf; stroke:none;" d="M77.3333 284.667L77.6667 285.333L77.3333 284.667z"/>
<path style="fill:#3240c4; stroke:none;" d="M320 284L321 285L320 284z"/>
<path style="fill:#eb6d64; stroke:none;" d="M321 285L322 286L321 285z"/>
<path style="fill:#3240c4; stroke:none;" d="M322 287L323 288L322 287M323 288L324 289L323 288M239 289L240 290L239 289z"/>
<path style="fill:#eb6d64; stroke:none;" d="M304 289L305 290L304 289z"/>
<path style="fill:#3240c4; stroke:none;" d="M324 290L325 291L324 290z"/>
<path style="fill:#c8cacf; stroke:none;" d="M73.3333 291.667L73.6667 292.333L73.3333 291.667z"/>
<path style="fill:#3240c4; stroke:none;" d="M248 291L249 292L248 291z"/>
<path style="fill:#eb6d64; stroke:none;" d="M325 291L326 292L325 291z"/>
<path style="fill:#c8cacf; stroke:none;" d="M143.333 292.667L143.667 293.333L143.333 292.667M153 292L153 293L156 294L153 292z"/>
<path style="fill:#3240c4; stroke:none;" d="M238 292L239 293L238 292z"/>
<path style="fill:#eb6d64; stroke:none;" d="M314 292L315 293L314 292z"/>
<path style="fill:#3240c4; stroke:none;" d="M325 292L326 293L325 292z"/>
<path style="fill:#eb6d64; stroke:none;" d="M326 293L327 294L326 293M295 294L296 295L295 294z"/>
<path style="fill:#3240c4; stroke:none;" d="M327 295L328 296L327 295M237 296L238 297L237 296z"/>
<path style="fill:#eb6d64; stroke:none;" d="M328 297L329 298L328 297z"/>
<path style="fill:#08080b; stroke:none;" d="M141 298L142 299L141 298z"/>
<path style="fill:#3240c4; stroke:none;" d="M236 298L237 299L236 298M328 298L329 299L328 298z"/>
<path style="fill:#eb6d64; stroke:none;" d="M324 299L325 300L324 299z"/>
<path style="fill:#c8cacf; stroke:none;" d="M138.333 301.667L138.667 302.333L138.333 301.667z"/>
<path style="fill:#3240c4; stroke:none;" d="M228 301L229 302L228 301M231 301L232 302L231 301z"/>
<path style="fill:#08080b; stroke:none;" d="M66 302L67 303L66 302z"/>
<path style="fill:#3240c4; stroke:none;" d="M230 303L231 304L230 303z"/>
<path style="fill:#08080b; stroke:none;" d="M65 304L66 305L65 304z"/>
<path style="fill:#3240c4; stroke:none;" d="M230 305L231 306L230 305z"/>
<path style="fill:#c8cacf; stroke:none;" d="M134.333 308.667L134.667 309.333L134.333 308.667z"/>
<path style="fill:#08080b; stroke:none;" d="M358 310L359 311L358 310z"/>
<path style="fill:#c8cacf; stroke:none;" d="M62.3333 311.667L62.6667 312.333L62.3333 311.667z"/>
<path style="fill:#3240c4; stroke:none;" d="M129.667 311.333L130.333 311.667L129.667 311.333M135 311L136 312L135 311M128 313L129 314L128 313z"/>
<path style="fill:#08080b; stroke:none;" d="M130 314L127 322L128 322L131 319L130 316L132 317L130 314M59 315L60 316L59 315z"/>
<path style="fill:#3240c4; stroke:none;" d="M129 315L130 316L129 315M131 315L132 316L131 315M128 316L129 317L128 316M130 316L130 318L132 318L130 316z"/>
<path style="fill:#08080b; stroke:none;" d="M58 317L59 318L58 317z"/>
<path style="fill:#3240c4; stroke:none;" d="M126.667 319.333L127.333 319.667L126.667 319.333M130 319L131 320L130 319z"/>
<path style="fill:#08080b; stroke:none;" d="M129 320L130 321L129 320M353 320L354 321L353 320z"/>
<path style="fill:#3240c4; stroke:none;" d="M121 322L122 323L121 322z"/>
<path style="fill:#08080b; stroke:none;" d="M126 322C115.691 346.794 98.203 371.885 92 398C87.8383 397.32 85.9082 398.226 84 402C86.8061 401.347 87.41 400.845 87 398L94 399L93 396L95 397C93.7772 393.331 96.2747 387.319 99 388L98 385L100 386C98.7233 382.17 102.272 374.318 105 375L104 372L106 373C104.777 369.331 107.275 363.319 110 364L109 361L111 362L110 359L112 360C110.723 356.17 114.272 348.318 117 349L116 346L118 347L121 335L122 337L123 337L122 333L124 334L123 331L125 332L126 322M128 322L129 323L128 322z"/>
<path style="fill:#3240c4; stroke:none;" d="M129.333 322.667L129.667 323.333L129.333 322.667M115 324L116 325L115 324M120 324L121 325L120 324z"/>
<path style="fill:#c8cacf; stroke:none;" d="M180 324L186 331L180 324z"/>
<path style="fill:#3240c4; stroke:none;" d="M120.333 326.667L120.667 327.333L120.333 326.667z"/>
<path style="fill:#c8cacf; stroke:none;" d="M348 326L332 343C337.7 340.059 347.571 332.914 348 326z"/>
<path style="fill:#08080b; stroke:none;" d="M126 327L127 328L126 327z"/>
<path style="fill:#3240c4; stroke:none;" d="M127 327L128 328L127 327z"/>
<path style="fill:#08080b; stroke:none;" d="M125 329L126 330L125 329z"/>
<path style="fill:#c8cacf; stroke:none;" d="M123 331L124 332L123 331z"/>
<path style="fill:#08080b; stroke:none;" d="M50 332L51 333L50 332z"/>
<path style="fill:#3240c4; stroke:none;" d="M121 332L122 333L121 332M123 332L124 333L123 332z"/>
<path style="fill:#c8cacf; stroke:none;" d="M122.333 333.667L122.667 334.333L122.333 333.667z"/>
<path style="fill:#08080b; stroke:none;" d="M49 334L50 335L49 334z"/>
<path style="fill:#3240c4; stroke:none;" d="M120 334L121 335L120 334M123 334L124 335L123 334z"/>
<path style="fill:#c8cacf; stroke:none;" d="M190 334L190 335L194 337L194 336L190 334z"/>
<path style="fill:#3240c4; stroke:none;" d="M103 335L104 336L103 335z"/>
<path style="fill:#08080b; stroke:none;" d="M48 336L49 337L48 336M47 338L48 339L47 338M46 340L47 341L46 340M119 342L120 343L119 342z"/>
<path style="fill:#3240c4; stroke:none;" d="M117 343L118 344L117 343M98 344L99 345L98 344M110 344L111 345L110 344M115 345L116 346L115 345z"/>
<path style="fill:#08080b; stroke:none;" d="M252 345L253 346L252 345z"/>
<path style="fill:#3240c4; stroke:none;" d="M96 346L97 347L96 346M98 347L99 348L98 347M101 348L102 349L101 348M113 348L114 349L113 348M115 348L116 349L115 348M108.667 352.333L109.333 352.667L108.667 352.333M111 353L112 354L111 353M113 353L114 354L113 353z"/>
<path style="fill:#08080b; stroke:none;" d="M114 353L115 354L114 353z"/>
<path style="fill:#3240c4; stroke:none;" d="M108 354L109 355L108 354z"/>
<path style="fill:#08080b; stroke:none;" d="M113 355L114 356L113 355z"/>
<path style="fill:#3240c4; stroke:none;" d="M111 356L112 357L111 356M107 358L108 359L107 358M98 363L99 364L98 363M101 363L102 364L101 363M95 365L96 366L95 365M100 365L101 366L100 365z"/>
<path style="fill:#08080b; stroke:none;" d="M108 366L109 367L108 366z"/>
<path style="fill:#3240c4; stroke:none;" d="M100 367L101 368L100 367z"/>
<path style="fill:#08080b; stroke:none;" d="M107 368L108 369L107 368M33 373L33 374L36 373L39 377L38 375L39 375L40 378L43 377L43 380L44 380L43 378L44 378L47 382L50 381L49 383L52 382L51 384L54 383L53 385L56 384L55 386L58 385L57 387L60 386L59 388L62 387L61 390L62 390L63 387C55.4835 382.613 41.6399 372.005 33 373z"/>
<path style="fill:#c8cacf; stroke:none;" d="M36.6667 374.333L37.3333 374.667L36.6667 374.333z"/>
<path style="fill:#3240c4; stroke:none;" d="M103 377L104 378L103 377z"/>
<path style="fill:#08080b; stroke:none;" d="M102 379L103 380L102 379M45 380L46 381L45 380M101 381L102 382L101 381M100 383L101 384L100 383z"/>
<path style="fill:#3240c4; stroke:none;" d="M51 388L41 402L8 403L8 405L6 404L5 405L5 410L6 410C10.4913 401.995 29.4848 404.176 38 404L38 405L8 407C26.1716 424.013 57.9528 409.756 77 426L87 403C77.1698 404.09 67.1115 395.057 58 392L59 388L51 388z"/>
<path style="fill:#08080b; stroke:none;" d="M57 388L58 389L57 388M51 389L52 390L51 389M50 391L48 395L50 394L50 395L44 402L38 403L38 404L58 391L50 391M59 389L60 390L59 389M60 390L58 391L58 392L60 390z"/>
<path style="fill:#3240c4; stroke:none;" d="M50.3333 392.667L50.6667 393.333L50.3333 392.667z"/>
<path style="fill:#08080b; stroke:none;" d="M96 392L97 393L96 392M95 394L96 395L95 394z"/>
<path style="fill:#3240c4; stroke:none;" d="M47 397L44 401L47 397z"/>
<path style="fill:#c8cacf; stroke:none;" d="M86.3333 399.667L86.6667 400.333L86.3333 399.667z"/>
<path style="fill:#08080b; stroke:none;" d="M83.3333 402.667L83.6667 403.333L83.3333 402.667M85.3333 402.667L85.6667 403.333L85.3333 402.667M8 405L8 406L38 405L8 405M84 404L76 424L77 424L79 420L77 421L77 420L80 419L79 416L86 409L84 410L84 409L84 404M6 405L7 406L6 405z"/>
<path style="fill:#c8cacf; stroke:none;" d="M8 406L9 407L8 406z"/>
<path style="fill:#3240c4; stroke:none;" d="M6 410L7 411L6 410M83 410L80 416L81 416L83 410M5 411L6 412L5 411M9 413L10 414L9 413M15 414L16 415L15 414M9 415L10 416L9 415M11 416L11 417L15 418L13 415L11 416M18 415L19 416L18 415M26 417L27 418L26 417M17 418L18 419L17 418M19 418L20 419L19 418M21 418L22 419L21 418M34.6667 418.333L35.3333 418.667L34.6667 418.333M23 419L24 420L23 419M25 419L26 420L25 419M49 419L50 420L49 419M30 420L31 421L30 420M32.6667 420.333L33.3333 420.667L32.6667 420.333M56 420L57 421L56 420M44 421L45 422L44 421M46.6667 421.333L47.3333 421.667L46.6667 421.333M61 421L63 423L61 421M76.3333 421.667L76.6667 422.333L76.3333 421.667M51 422L52 423L51 422M54 422L55 423L54 422M61 424L62 425L61 424M74 424L75 425L74 424M60 426L61 427L60 426M56 427L57 428L56 427M73 427L74 428L73 427M59 428L60 429L59 428M55 429L56 430L55 429M74 429L73 431L74 429M58 430L59 431L58 430M57 432L58 433L57 432M69 433L70 434L69 433M71 433L72 434L71 433M55 434L56 435L55 434M66 434L67 435L66 434M55 436L56 437L55 436M63 436L64 437L63 436M69 436L70 437L69 436M58 437L59 438L58 437M60.3333 437.667L60.6667 438.333L60.3333 437.667M65 438L66 439L65 438M67 438L68 439L67 438z"/>
</svg>
